<svg width="67" height="67" viewBox="0 0 67 67" fill="none" xmlns="http://www.w3.org/2000/svg">
<path d="M16.1637 36.6532L39.1196 56.7365C41.8247 59.1066 46.0624 57.1804 46.0624 53.5833V13.4168C46.0631 12.6118 45.8318 11.8236 45.396 11.1467C44.9603 10.4698 44.3387 9.93283 43.6057 9.60011C42.8726 9.26739 42.0592 9.15301 41.2628 9.27069C40.4664 9.38837 39.7209 9.7331 39.1154 10.2636L16.1679 30.3469C15.7181 30.7399 15.3576 31.2246 15.1106 31.7685C14.8636 32.3123 14.7358 32.9027 14.7358 33.5C14.7358 34.0974 14.8636 34.6878 15.1106 35.2316C15.3576 35.7755 15.7181 36.2602 16.1679 36.6532H16.1637Z" fill="#EC4F4F"/>
</svg>
